<svg width="21" height="22" viewBox="0 0 21 22" fill="none" xmlns="http://www.w3.org/2000/svg">
<path d="M20.25 7.85711C20.25 7.44034 20.092 7.04064 19.8107 6.74594C19.5294 6.45124 19.1478 6.28568 18.75 6.28568H15.75L13.5 3.14282H7.5L5.25 6.28568H2.25C1.85218 6.28568 1.47064 6.45124 1.18934 6.74594C0.908035 7.04064 0.75 7.44034 0.75 7.85711V17.2857C0.75 17.7024 0.908035 18.1021 1.18934 18.3968C1.47064 18.6915 1.85218 18.8571 2.25 18.8571H18.75C19.1478 18.8571 19.5294 18.6915 19.8107 18.3968C20.092 18.1021 20.25 17.7024 20.25 17.2857V7.85711Z" stroke="#314D39" stroke-linecap="round" stroke-linejoin="round"/>
<path d="M10.5 15.3214C12.364 15.3214 13.875 13.7384 13.875 11.7857C13.875 9.83299 12.364 8.25 10.5 8.25C8.63604 8.25 7.125 9.83299 7.125 11.7857C7.125 13.7384 8.63604 15.3214 10.5 15.3214Z" stroke="#314D39" stroke-linecap="round" stroke-linejoin="round"/>
</svg>
