<svg width="28" height="28" viewBox="0 0 28 28" fill="none" xmlns="http://www.w3.org/2000/svg">
<path d="M9.64286 25.159L0 27.859L2.7 18.2162L20.3571 0.644733C20.5567 0.440635 20.795 0.278466 21.0581 0.167749C21.3213 0.0570328 21.6038 0 21.8893 0C22.1747 0 22.4573 0.0570328 22.7204 0.167749C22.9835 0.278466 23.2219 0.440635 23.4214 0.644733L27.2143 4.45902C27.4151 4.65823 27.5745 4.89523 27.6833 5.15635C27.7921 5.41748 27.8481 5.69756 27.8481 5.98045C27.8481 6.26333 27.7921 6.54341 27.6833 6.80454C27.5745 7.06567 27.4151 7.30267 27.2143 7.50188L9.64286 25.159Z" fill="#AEAEAE"/>
<path d="M2 17L12 26" stroke="white"/>
</svg>
