<svg width="20" height="20" viewBox="0 0 20 20" fill="none" xmlns="http://www.w3.org/2000/svg">
<g clip-path="url(#clip0_112_824)">
<path d="M2.15744 19.2859L17.8717 19.2859C18.6607 19.2859 19.3003 18.6463 19.3003 17.8573L19.3003 2.14303C19.3003 1.35405 18.6607 0.71446 17.8717 0.71446L2.15744 0.71446C1.36846 0.71446 0.728865 1.35405 0.728865 2.14303L0.728865 17.8573C0.728865 18.6463 1.36846 19.2859 2.15744 19.2859Z" stroke="white" stroke-linecap="round" stroke-linejoin="round"/>
<path d="M13.2144 9.28589C14.5951 9.28589 15.7144 8.1666 15.7144 6.78589C15.7144 5.40518 14.5951 4.28589 13.2144 4.28589C11.8336 4.28589 10.7144 5.40518 10.7144 6.78589C10.7144 8.1666 11.8336 9.28589 13.2144 9.28589Z" stroke="white" stroke-linecap="round" stroke-linejoin="round"/>
<path d="M13.4286 19.2858C12.9686 16.8358 11.6531 14.6289 9.71683 13.0589C7.78052 11.4889 5.34939 10.658 2.85721 10.7144C2.13818 10.7124 1.42061 10.7794 0.714355 10.9144" stroke="white" stroke-linecap="round" stroke-linejoin="round"/>
<path d="M19.286 14.1573C18.1354 13.7687 16.929 13.5709 15.7146 13.5716C14.1774 13.5682 12.6557 13.8794 11.2432 14.4858" stroke="white" stroke-linecap="round" stroke-linejoin="round"/>
</g>
<defs>
<clipPath id="clip0_112_824">
<rect width="20" height="20" fill="white"/>
</clipPath>
</defs>
</svg>
