<svg width="44" height="45" viewBox="0 0 44 45" fill="none" xmlns="http://www.w3.org/2000/svg">
<circle cx="22" cy="22" r="21.5" fill="white" stroke="#598564"/>
<circle cx="22.5" cy="17.5" r="6" fill="#598564" stroke="#598564"/>
<path d="M38.494 35.815C38.4439 35.8697 38.3796 35.9391 38.3015 36.0217C38.0869 36.2486 37.7688 36.5745 37.3581 36.9664C36.5363 37.7508 35.3466 38.797 33.8773 39.8426C30.9288 41.9411 26.9065 44 22.5 44C13.8856 44 8.68057 38.971 6.55172 36.8446C8.09605 30.6948 13.7397 25.5 22.5 25.5C26.93 25.5 30.9518 27.2031 33.8664 29.3993C35.3229 30.4969 36.491 31.7088 37.2909 32.8763C38.0404 33.9704 38.4412 34.9876 38.494 35.815Z" fill="#598564" stroke="#598564"/>
</svg>
