<svg width="265" height="265" viewBox="0 0 265 265" fill="none" xmlns="http://www.w3.org/2000/svg">
<rect width="265" height="265" rx="25" fill="url(#paint0_linear_268_2708)"/>
<path d="M85 188.5L95 175L88 177L79 179L62 178.5L46.5 169L42 164.5L51.5 156.5V155L50.5 153L39 138L38 136L37 133.5V130V123V108L50.5 119L56.5 123L64 126.5H68V119.5V109.5L84 113.5L91.5 118L99.5 123H107.5L105 119L101 113.5L99 110.5L97.5 95L96 83.5L95.5 80L117 85V84.5L115.5 79V76.5L118.5 72L132.5 50L147 72L150 76.5V79L148.5 85L150.5 84.5L169 80V83.5L168 95L166.5 110.5L166 113.5L163 118.5L160.5 123H166.5L174 121L181.5 118L197.5 111.5V121V127L201 126.5L208 123L213.5 119.5L228 109V112.5V126.5L227 133L225.5 138.5L222.5 145.5L220 148.5L213 154.5L212 156L213.5 158L218.5 162L223.5 167L221 169.5L213.5 175L210.5 176L196 178L190.5 178.5L187.5 178L172.5 176L185 190.5L196 200L209 210.5L213 213.5L183 214.5H176L172.5 214L168 212.5L163 210.5L158 208.5L153 206L148.5 203L145 200L144 198L142.5 195.5L140.5 193.5L139 192L136.5 190.5L134 189.5H131.5L129 190.5L126.5 192L125 193.5L123.5 195.5L121.5 199L120 201.5L117.5 204L114 206L111.5 207L103 210.5H98H92.5H81H71H63H58L63 207L74.5 197L85 188.5Z" stroke="white" stroke-width="12"/>
<defs>
<linearGradient id="paint0_linear_268_2708" x1="265" y1="263.918" x2="-1.23136e-07" y2="1.08201" gradientUnits="userSpaceOnUse">
<stop stop-color="#6DC246" stop-opacity="0.7"/>
<stop offset="0.305135" stop-color="#F5F76F"/>
<stop offset="0.655" stop-color="#FFBB5D"/>
<stop offset="1" stop-color="#D57272"/>
</linearGradient>
</defs>
</svg>
