<svg width="1318" height="186" viewBox="0 0 1318 186" fill="none" xmlns="http://www.w3.org/2000/svg">
<ellipse cx="153.65" cy="108.403" rx="74.0055" ry="44.4033" fill="white"/>
<ellipse cx="224.836" cy="125.671" rx="53.5659" ry="32.0691" fill="white"/>
<ellipse cx="90.9209" cy="125.671" rx="53.5659" ry="32.0691" fill="white"/>
<ellipse cx="278.05" cy="149.283" rx="39.822" ry="23.9637" fill="white"/>
<ellipse cx="39.822" cy="149.283" rx="39.822" ry="23.9637" fill="white"/>
<ellipse cx="109.599" cy="161.264" rx="52.5087" ry="23.9637" fill="white"/>
<ellipse cx="197.701" cy="161.264" rx="52.5087" ry="23.9637" fill="white"/>
<ellipse cx="1167.5" cy="107.5" rx="52.5" ry="32.5" fill="white"/>
<ellipse cx="1285.5" cy="151" rx="32.5" ry="20" fill="white"/>
<path d="M1311 157.5C1311 172.136 1264.5 174 1196 174C1132.49 174 1081 172.136 1081 157.5C1081 142.864 1132.49 131 1196 131C1259.51 131 1311 142.864 1311 157.5Z" fill="white"/>
<path d="M1204 138.5C1204 156.449 1205.16 175 1166.5 175C1127.84 175 1076 181 1064 138.5C1064 120.551 1095.34 106 1134 106C1172.66 106 1204 120.551 1204 138.5Z" fill="white"/>
<ellipse cx="1206" cy="140.5" rx="66" ry="32.5" fill="white"/>
<ellipse cx="637" cy="34" rx="51" ry="34" fill="white"/>
<ellipse cx="723" cy="44" rx="58" ry="44" fill="white"/>
<ellipse cx="760.5" cy="64" rx="80.5" ry="34" fill="white"/>
<ellipse cx="601" cy="64" rx="68" ry="34" fill="white"/>
<ellipse cx="727" cy="88" rx="54" ry="34" fill="white"/>
<path d="M696 88C696 106.778 670.48 122 639 122C607.52 122 582 106.778 582 88C582 69.2223 607.52 54 639 54C670.48 54 696 69.2223 696 88Z" fill="white"/>
</svg>
