<svg width="41" height="43" viewBox="0 0 41 43" fill="none" xmlns="http://www.w3.org/2000/svg">
<circle cx="20.4286" cy="21.2143" r="19.9286" fill="white" stroke="#598564"/>
<circle cx="20.8926" cy="17.0357" r="5.53571" fill="#598564" stroke="#598564"/>
<path d="M35.7076 34.0296C35.6629 34.0784 35.6067 34.1389 35.5396 34.2099C35.3407 34.4202 35.0458 34.7224 34.6649 35.0858C33.9027 35.8133 32.7993 36.7836 31.4367 37.7533C28.7014 39.7 24.9737 41.6071 20.8927 41.6071C12.928 41.6071 8.10787 36.9691 6.12318 34.9876C7.56019 29.302 12.7834 24.5 20.8927 24.5C24.9973 24.5 28.7244 26.0781 31.4257 28.1136C32.7756 29.1308 33.8574 30.2535 34.5976 31.3339C35.2871 32.3404 35.6553 33.273 35.7076 34.0296Z" fill="#598564" stroke="#598564"/>
</svg>
