<svg width="53" height="35" viewBox="0 0 53 35" fill="none" xmlns="http://www.w3.org/2000/svg">
<path d="M6.15426 19.1755L4.25532 18.0904H2.08511L1.54255 16.1915L1 14.5638V12.9362V11.5798V9.95213V8.32447L1.54255 6.42553L2.08511 5.06915H2.62766H9.68085L10.2234 5.6117L10.766 6.69681L11.8511 7.78191L13.4787 8.32447L15.1064 7.78191L19.4468 6.69681L25.6862 6.15426H28.6702L33.2819 7.23936L35.9947 8.59574L37.3511 10.4947L39.25 13.4787L40.6064 16.1915L42.5053 20.2606L43.8617 23.516V25.1436M6.15426 19.1755V20.8032V22.7021L7.78191 23.516H9.68085M6.15426 19.1755L7.78191 18.0904L9.68085 17.5479L10.766 18.0904V20.8032M9.68085 23.516L10.766 20.8032M9.68085 23.516L10.766 24.3298L12.6649 25.1436H14.2926M10.766 20.8032L12.6649 18.0904L14.2926 16.734H15.9202L17.0053 18.0904L16.4628 20.2606L15.9202 22.7021M15.9202 22.7021L15.1064 24.3298L14.2926 25.1436M15.9202 22.7021L17.0053 20.8032L17.8191 20.2606L19.4468 18.633L21.3457 17.5479H22.7021L23.516 18.0904V19.1755L22.7021 22.1596L21.3457 25.1436M14.2926 25.1436V27.0426L15.1064 28.3989L17.0053 29.484L18.9043 28.9415M18.9043 28.9415L20.2606 27.8564L21.3457 25.1436M18.9043 28.9415L19.4468 30.5691L21.3457 31.6543H23.516M21.3457 25.1436L22.7021 24.3298L24.3298 23.516H25.6862L26.5 24.3298V25.1436V27.0426L25.6862 28.9415L24.8723 30.5691L23.516 31.6543M23.516 31.6543H24.8723L26.5 32.7394L28.6702 33.5532L30.5691 32.7394L31.383 31.6543V30.5691L30.5691 28.9415M30.5691 28.9415L25.6862 21.617M30.5691 28.9415L31.9255 31.6543H33.2819L34.9096 30.5691L35.4521 28.9415M35.4521 28.9415L34.9096 27.0426L29.7553 16.734M35.4521 28.9415L36.5372 29.484H38.1649L39.7926 28.3989V27.3138M39.25 24.3298L39.7926 26.2287V27.3138M39.25 24.3298L32.7394 11.3085M39.25 24.3298L39.7926 27.3138M41.4202 27.8564L43.0479 27.3138L43.8617 25.1436M43.8617 25.1436L44.6755 24.3298L45.7606 22.7021L46.3032 20.8032L47.3883 18.633L50.1011 17.5479L52 16.734V16.1915V14.5638L51.4574 12.1223L50.9149 9.95213L50.1011 7.23936L49.016 4.5266L47.3883 2.62766L43.8617 3.17021H41.4202H38.1649L35.9947 2.08511L32.7394 1.54255L29.7553 1H27.5851H25.6862H22.7021L20.2606 1.54255L17.8191 2.62766L15.1064 3.71277L12.1223 4.79787L10.766 5.06915" stroke="white" stroke-width="2"/>
<path d="M41.6915 27.8564H40.0638L39.7926 26.5" stroke="white" stroke-width="2"/>
<path d="M28.6702 14.8351L27.8564 14.0212H26.7713" stroke="white" stroke-width="2"/>
</svg>
