<svg width="261" height="297" viewBox="0 0 261 297" fill="none" xmlns="http://www.w3.org/2000/svg">
<path d="M29.9411 221.257L20.5447 215.888H9.80599L7.12131 206.492L4.43662 198.438V190.384V183.672V175.618V167.564L7.12131 158.167L9.80599 151.456H12.4907H47.3916L50.0762 154.14L52.7609 159.51L58.1303 164.879L66.1843 167.564L74.2384 164.879L95.7158 159.51L126.59 156.825H141.355L164.175 162.194L177.599 168.906L184.31 178.303L193.707 193.068L200.418 206.492L209.815 226.627L216.527 242.735V250.789M29.9411 221.257V229.311V238.708L37.9952 242.735H47.3916M29.9411 221.257L37.9952 215.888L47.3916 213.203L52.7609 215.888V229.311M47.3916 242.735L52.7609 229.311M47.3916 242.735L52.7609 246.762L62.1573 250.789H70.2114M52.7609 229.311L62.1573 215.888L70.2114 209.176H78.2654L83.6348 215.888L80.9501 226.627L78.2654 238.708M78.2654 238.708L74.2384 246.762L70.2114 250.789M78.2654 238.708L83.6348 229.311L87.6618 226.627L95.7158 218.573L105.112 213.203H111.824L115.851 215.888V221.257L111.824 236.023L105.112 250.789M70.2114 250.789V260.185L74.2384 266.897L83.6348 272.266L93.0312 269.582M93.0312 269.582L99.7429 264.212L105.112 250.789M93.0312 269.582L95.7158 277.636L105.112 283.005H115.851M105.112 250.789L111.824 246.762L119.878 242.735H126.59L130.617 246.762V250.789V260.185L126.59 269.582L122.563 277.636L115.851 283.005M115.851 283.005H122.563L130.617 288.375L141.355 292.402L150.752 288.375L154.779 283.005V277.636L150.752 269.582M150.752 269.582L126.59 233.339M150.752 269.582L157.464 283.005H164.175L172.229 277.636L174.914 269.582M174.914 269.582L172.229 260.185L146.725 209.176M174.914 269.582L180.283 272.266H188.337L196.391 266.897V261.528M193.707 246.762L196.391 256.158V261.528M193.707 246.762L161.491 182.33M193.707 246.762L196.391 261.528M204.446 264.212L212.5 261.528L216.527 250.789M216.527 250.789L220.554 246.762L225.923 238.708L228.608 229.311L233.977 218.573L247.4 213.203L256.797 209.176V206.492V198.438L254.112 186.357L251.427 175.618L247.4 162.194L242.031 148.771L233.977 139.375L216.527 142.059H204.446H188.337L177.599 136.69L161.491 134.005L146.725 131.321H135.986H126.59H111.824L99.7429 134.005L87.6618 139.375L74.2384 144.744L59.4726 150.113L52.7609 151.456" stroke="white" stroke-width="8"/>
<path d="M205.787 264.212H197.733L196.391 257.501" stroke="white" stroke-width="8"/>
<path d="M141.356 199.781L137.329 195.753H131.959" stroke="white" stroke-width="8"/>
<path d="M72.1853 105L93.0311 117.107L116.483 105H150.357L176.414 117.107L199.866 105L212.894 75.9423H176.414L160.78 92.8926V61.4134L150.357 37.1986L132.117 8.14087L116.483 37.1986L106.06 61.4134V92.8926L93.0311 75.9423H56.551L72.1853 105Z" stroke="url(#paint0_linear_159_1742)" stroke-width="8"/>
<defs>
<linearGradient id="paint0_linear_159_1742" x1="212.894" y1="62.6241" x2="56.551" y2="62.6241" gradientUnits="userSpaceOnUse">
<stop stop-color="#D13939"/>
<stop offset="0.47" stop-color="#FFE600"/>
<stop offset="1" stop-color="#59A72B"/>
</linearGradient>
</defs>
</svg>
