<svg width="36" height="30" viewBox="0 0 36 30" fill="none" xmlns="http://www.w3.org/2000/svg">
<path d="M16.0101 25.4951L17.7446 24.9156L19.4791 25.4951L20.6355 27.2334L22.37 28.3922L25.2609 29.5511H29.3081H32.199L29.3081 27.2334L26.9954 24.9156L24.6827 22.5979L28.1517 23.1773L32.199 22.5979L33.9335 21.439V20.8596L32.199 19.1213L33.9335 17.383L35.0898 14.4858V11.0092L31.6208 13.327L29.3081 14.4858V13.327V11.5887L24.6827 13.327H22.37L23.5264 11.5887L24.1045 5.79433L20.6355 6.37376V4.63546L17.7446 0L14.8537 4.63546V6.37376L11.3847 5.79433L11.9629 11.0092L13.6974 13.327H11.3847L8.49384 11.5887L6.18115 11.0092V13.327V14.4858L3.29028 13.327L0.399414 11.0092V15.0653L1.55576 16.8036L3.29028 19.1213L1.55576 20.8596L2.13393 21.439L5.0248 23.1773H7.91567L10.8065 22.5979L7.91567 26.0745L4.44663 28.9717H7.91567H11.9629L14.8537 27.8128L16.0101 25.4951Z" fill="#D57272"/>
</svg>
