<svg width="36" height="30" viewBox="0 0 36 30" fill="none" xmlns="http://www.w3.org/2000/svg">
<path d="M15.8824 25.8824L17.6471 25.2941L19.4118 25.8824L20.5882 27.6471L22.3529 28.8235L25.2941 30H29.4118H32.3529L29.4118 27.6471L27.0588 25.2941L24.7059 22.9412L28.2353 23.5294L32.3529 22.9412L34.1176 21.7647V21.1765L32.3529 19.4118L34.1176 17.6471L35.2941 14.7059V11.1765L31.7647 13.5294L29.4118 14.7059V13.5294V11.7647L24.7059 13.5294H22.3529L23.5294 11.7647L24.1176 5.88235L20.5882 6.47059V4.70588L17.6471 0L14.7059 4.70588V6.47059L11.1765 5.88235L11.7647 11.1765L13.5294 13.5294H11.1765L8.23529 11.7647L5.88235 11.1765V13.5294V14.7059L2.94118 13.5294L0 11.1765V15.2941L1.17647 17.0588L2.94118 19.4118L1.17647 21.1765L1.76471 21.7647L4.70588 23.5294H7.64706L10.5882 22.9412L7.64706 26.4706L4.11765 29.4118H7.64706H11.7647L14.7059 28.2353L15.8824 25.8824Z" fill="#F5F76F"/>
</svg>
